<?xml version="1.0" standalone="no"?>
<!DOCTYPE svg PUBLIC "-//W3C//DTD SVG 20010904//EN"
 "http://www.w3.org/TR/2001/REC-SVG-20010904/DTD/svg10.dtd">
<svg version="1.0" xmlns="http://www.w3.org/2000/svg"
 width="100.000000pt" height="100.000000pt" viewBox="0 0 100.000000 100.000000"
 preserveAspectRatio="xMidYMid meet">
<metadata>
Created by potrace 1.16, written by Peter Selinger 2001-2019
</metadata>
<g transform="translate(0.000000,100.000000) scale(0.100000,-0.100000)"
fill="#000000" stroke="none">
<path d="M65 933 c-11 -3 -30 -14 -42 -26 -23 -20 -23 -25 -23 -254 l0 -234
25 -24 c20 -21 34 -25 79 -25 l55 0 3 -62 c3 -62 4 -63 33 -66 25 -2 40 7 95
63 l64 65 68 0 68 0 0 -69 c0 -71 12 -120 33 -133 7 -4 62 -8 124 -8 l111 0
41 -41 c54 -52 85 -51 89 4 3 35 5 37 36 37 59 0 66 18 66 183 0 181 3 177
-121 177 l-89 0 0 175 0 175 -29 32 -29 33 -319 2 c-175 0 -327 -1 -338 -4z
m661 -57 c11 -15 14 -59 14 -188 l0 -168 -101 0 c-55 0 -109 -5 -119 -10 -12
-6 -21 -26 -26 -55 l-6 -45 -77 0 -77 0 -64 -65 -65 -66 -5 63 -5 63 -70 5
c-94 7 -95 7 -95 236 0 186 8 239 38 247 9 3 158 4 330 4 298 -2 314 -3 328
-21z m219 -536 l0 -135 -45 -5 c-42 -5 -45 -7 -50 -38 l-5 -33 -34 35 -35 36
-117 0 c-97 0 -118 3 -123 16 -8 21 -8 228 0 248 6 14 31 16 208 14 l201 -3 0
-135z"/>
<path d="M316 815 c-3 -9 -6 -32 -6 -50 0 -33 -1 -34 -47 -37 l-48 -3 0 -70 0
-70 48 -3 47 -3 0 -43 c0 -55 13 -66 75 -66 62 0 75 11 75 67 l0 43 50 0 51 0
-3 73 -3 72 -47 3 -47 3 -3 47 -3 47 -66 3 c-54 2 -68 0 -73 -13z m106 -72 l3
-48 53 -3 52 -3 0 -35 0 -34 -49 0 c-55 0 -61 -7 -61 -71 0 -38 -1 -39 -34
-39 l-35 0 -3 53 -3 52 -52 3 c-53 3 -53 3 -53 37 0 34 0 34 53 37 l52 3 3 48
c3 46 4 47 37 47 33 0 34 -1 37 -47z"/>
</g>
</svg>
